<svg width="32" height="53" viewBox="0 0 32 53" fill="none" xmlns="http://www.w3.org/2000/svg">
<path d="M15.9712 4.25021C20.5006 10.0003 22.9184 17.0911 22.8308 24.3672V26.1041L24.3251 27.0134C26.256 28.1822 27.696 29.9952 28.3828 32.1218C27.7798 31.6779 27.149 31.2718 26.4941 30.906L22.5091 28.6685L21.793 33.1844C21.731 33.5834 21.6478 33.979 21.5439 34.3695H10.3776C10.2116 33.8587 10.0767 33.3478 9.95216 32.8165L9.04931 28.7298L5.37563 30.7732C4.76189 31.1164 4.16933 31.4951 3.60106 31.9072C4.30122 29.8052 5.71117 28.0025 7.59644 26.7988L9.01817 25.8895V24.2753C9.04382 17.0287 11.4908 9.99182 15.9815 4.25021H15.9712ZM15.9815 0C15.7486 0.00056559 15.5238 0.0840264 15.3485 0.234988L15.2551 0.316723C9.27093 6.90584 5.94799 15.4262 5.91527 24.265C3.37587 25.8871 1.49616 28.336 0.604618 31.184C-0.286924 34.0319 -0.1336 37.0978 1.0378 39.8457C2.2718 37.1626 4.33464 34.9315 6.93227 33.4704C7.19279 34.5814 7.53973 35.671 7.97003 36.7296C8.02461 36.9331 8.14557 37.1133 8.31431 37.2425C8.48306 37.3717 8.69025 37.4428 8.90402 37.4448H23.3081C23.5987 37.4448 23.8893 37.1689 24.0346 36.7398C24.4545 35.7334 24.7473 34.68 24.9063 33.6032C27.5089 35.0582 29.5734 37.2912 30.8008 39.9786C32.0428 37.2441 32.2351 34.1589 31.342 31.2955C30.4488 28.4321 28.5309 25.9849 25.944 24.4081C26.0467 15.5171 22.7413 6.91476 16.6872 0.316723C16.5971 0.217486 16.4867 0.138011 16.3634 0.0834489C16.24 0.0288868 16.1064 0.0004561 15.9712 0L15.9815 0Z" fill="#4EA8DE"/>
<path d="M15.9712 23.417C15.1741 23.417 14.3949 23.1847 13.7317 22.7493C13.0685 22.3139 12.5511 21.695 12.2447 20.9706C11.9383 20.2462 11.8565 19.4486 12.0098 18.6785C12.163 17.9084 12.5444 17.2002 13.1059 16.6432C13.6673 16.0862 14.3837 15.7053 15.1648 15.5485C15.9458 15.3917 16.7565 15.466 17.4946 15.7621C18.2328 16.0582 18.8654 16.5629 19.3127 17.2124C19.76 17.8619 20.002 18.6273 20.0081 19.412V19.412C20.0205 19.9206 19.931 20.4265 19.7448 20.901C19.5585 21.3755 19.2791 21.8092 18.9225 22.1773C18.5659 22.5455 18.1392 22.8408 17.6666 23.0465C17.194 23.2522 16.6849 23.3642 16.1684 23.3762C16.1031 23.3865 16.0365 23.3865 15.9712 23.3762V23.417Z" fill="#4EA8DE"/>
<path d="M21.5854 39.9888C21.3257 39.9806 21.067 40.0236 20.8245 40.1151C20.5819 40.2067 20.3603 40.3451 20.1728 40.5221C19.9853 40.6991 19.8356 40.9112 19.7324 41.1459C19.6293 41.3807 19.5748 41.6334 19.5721 41.8891V47.9171C19.5721 48.4427 19.7843 48.9469 20.1618 49.3186C20.5394 49.6903 21.0514 49.8991 21.5854 49.8991C22.1193 49.8991 22.6314 49.6903 23.009 49.3186C23.3865 48.9469 23.5987 48.4427 23.5987 47.9171V41.9708C23.6069 41.7161 23.5636 41.4622 23.4713 41.224C23.3789 40.9859 23.2393 40.7682 23.0606 40.5838C22.8819 40.3993 22.6677 40.2516 22.4304 40.1495C22.1932 40.0473 21.9377 39.9927 21.6788 39.9888H21.5854Z" fill="#5E60CE"/>
<path d="M10.3776 39.9888C10.1136 39.975 9.84939 40.0137 9.60081 40.1025C9.35224 40.1914 9.12435 40.3285 8.9307 40.5058C8.73706 40.6831 8.58162 40.8969 8.47364 41.1346C8.36565 41.3722 8.30732 41.6288 8.30212 41.8891V47.9171C8.30212 48.4428 8.51423 48.9469 8.89179 49.3186C9.26935 49.6903 9.78143 49.8991 10.3154 49.8991C10.8493 49.8991 11.3614 49.6903 11.739 49.3186C12.1165 48.9469 12.3286 48.4428 12.3286 47.9171V41.9709C12.3369 41.7161 12.2936 41.4622 12.2012 41.2241C12.1089 40.9859 11.9693 40.7683 11.7906 40.5838C11.6119 40.3993 11.3977 40.2517 11.1604 40.1495C10.9232 40.0474 10.6677 39.9927 10.4088 39.9888H10.3776Z" fill="#5E60CE"/>
<path d="M15.8259 39.9888C15.5669 39.9834 15.3094 40.0282 15.0681 40.1208C14.8268 40.2134 14.6063 40.3518 14.4194 40.5283C14.2324 40.7048 14.0826 40.9158 13.9785 41.1493C13.8744 41.3828 13.818 41.6342 13.8126 41.8891V50.1954C13.8126 50.7211 14.0247 51.2252 14.4023 51.597C14.7798 51.9687 15.2919 52.1775 15.8259 52.1775C16.3598 52.1775 16.8719 51.9687 17.2495 51.597C17.627 51.2252 17.8391 50.7211 17.8391 50.1954V42.0219C17.8474 41.7671 17.8041 41.5133 17.7117 41.2751C17.6194 41.037 17.4798 40.8193 17.3011 40.6348C17.1224 40.4504 16.9082 40.3027 16.6709 40.2006C16.4337 40.0984 16.1782 40.0438 15.9193 40.0399L15.8259 39.9888Z" fill="#5E60CE"/>
</svg>
